# xmcd
#
# Track frame offsets:
#	150
#	32665
#	60362
#	118517
#	192537
#
# Disc length: 3166 seconds
#
# Revision: 4
# Processed by: cddbd v1.5.2PL0 Copyright (c) Steve Scherf et al.
# Submitted via: EasyCDDAExtractor 15.2.5.1
#
DISCID=3c0c5c05
DTITLE=覺慧法音合唱團 - 花開見佛
DYEAR=1912
DGENRE=佛歌
TTITLE0=花開見佛
TTITLE1=十層佛
TTITLE2=觀念三寳恩
TTITLE3=無量壽彿
TTITLE4=彌陀讚頌
EXTD=
EXTT0=
EXTT1=
EXTT2=
EXTT3=
EXTT4=
PLAYORDER=
